<?xml version="1.0" standalone="no"?><!DOCTYPE svg PUBLIC "-//W3C//DTD SVG 1.1//EN" "http://www.w3.org/Graphics/SVG/1.1/DTD/svg11.dtd"><svg t="1769754739687" class="icon" viewBox="0 0 1024 1024" version="1.1" xmlns="http://www.w3.org/2000/svg" p-id="17577" width="256" height="256" xmlns:xlink="http://www.w3.org/1999/xlink"><path d="M196.608 788.992v133.12c4.608 30.208 31.232 51.712 61.44 51.2h517.632c30.72 0 56.32-30.72 56.32-61.44v-133.12H196.608v10.24z" fill="#AEC9FF" p-id="17578"></path><path d="M1016.832 327.68c-9.216-28.672-24.576-55.296-46.08-76.8-20.48-27.136-49.152-47.104-81.92-56.32-46.08-15.36-87.04-10.24-128 5.12-5.12 0-10.24 5.12-15.36 5.12-51.2-97.28-128.512-153.6-236.032-153.6s-184.32 51.2-230.4 153.6c-51.2-25.6-107.52-30.72-163.84-5.12s-92.16 66.56-107.52 128c-15.36 56.32-5.12 107.52 20.48 153.6 35.84 66.56 97.28 92.16 163.84 97.28v128h640.512v-133.12h5.12c20.48 0 35.84-5.12 56.32-10.24 46.08-15.36 81.92-40.96 102.4-87.04 20.48-35.84 25.6-76.8 25.6-117.76 5.12-5.12 0-20.48-5.12-30.72z" fill="#3366FF" p-id="17579"></path></svg>
